<svg xmlns="http://www.w3.org/2000/svg" version="1.1" xmlns:xlink="http://www.w3.org/1999/xlink" xmlns:svgjs="http://svgjs.dev/svgjs" width="1920" height="1080" preserveAspectRatio="none" viewBox="0 0 1920 1080"><g mask="url(&quot;#SvgjsMask1180&quot;)" fill="none"><rect width="1920" height="1080" x="0" y="0" fill="url(&quot;#SvgjsLinearGradient1181&quot;)"></rect><path d="M1920 0L1709.12 0L1920 394.54z" fill="rgba(255, 255, 255, .1)"></path><path d="M1709.12 0L1920 394.54L1920 574.45L1380.4899999999998 0z" fill="rgba(255, 255, 255, .075)"></path><path d="M1380.49 0L1920 574.45L1920 581.25L650.53 0z" fill="rgba(255, 255, 255, .05)"></path><path d="M650.53 0L1920 581.25L1920 809.5699999999999L532.92 0z" fill="rgba(255, 255, 255, .025)"></path><path d="M0 1080L869.6 1080L0 941.52z" fill="rgba(0, 0, 0, .1)"></path><path d="M0 941.52L869.6 1080L1234.41 1080L0 499.63z" fill="rgba(0, 0, 0, .075)"></path><path d="M0 499.63L1234.41 1080L1638.3500000000001 1080L0 385.92z" fill="rgba(0, 0, 0, .05)"></path><path d="M0 385.91999999999996L1638.3500000000001 1080L1651.5200000000002 1080L0 282.35999999999996z" fill="rgba(0, 0, 0, .025)"></path></g><defs><mask id="SvgjsMask1180"><rect width="1920" height="1080" fill="#ffffff"></rect></mask><linearGradient x1="10.94%" y1="-19.44%" x2="89.06%" y2="119.44%" gradientUnits="userSpaceOnUse" id="SvgjsLinearGradient1181"><stop stop-color="rgba(14, 42, 71, 1)" offset="0"></stop><stop stop-color="rgba(0, 70, 190, 1)" offset="0"></stop></linearGradient></defs></svg>