<?xml version="1.0" encoding="UTF-8" standalone="no"?>
<svg
   fill="none"
   viewBox="0 0 24 24"
   stroke-width="1.5"
   stroke="currentColor"
   class="size-6"
   version="1.1"
   id="svg1195"
   sodipodi:docname="book.svg"
   inkscape:version="1.1.2 (0a00cf5339, 2022-02-04)"
   xmlns:inkscape="http://www.inkscape.org/namespaces/inkscape"
   xmlns:sodipodi="http://sodipodi.sourceforge.net/DTD/sodipodi-0.dtd"
   xmlns="http://www.w3.org/2000/svg"
   xmlns:svg="http://www.w3.org/2000/svg">
  <defs
     id="defs1199" />
  <sodipodi:namedview
     id="namedview1197"
     pagecolor="#ffffff"
     bordercolor="#666666"
     borderopacity="1.0"
     inkscape:pageshadow="2"
     inkscape:pageopacity="0.0"
     inkscape:pagecheckerboard="0"
     showgrid="false"
     inkscape:zoom="17.333333"
     inkscape:cx="9.3461538"
     inkscape:cy="15.634615"
     inkscape:window-width="1475"
     inkscape:window-height="778"
     inkscape:window-x="2121"
     inkscape:window-y="229"
     inkscape:window-maximized="0"
     inkscape:current-layer="svg1195" />
  <path
     stroke-linecap="round"
     stroke-linejoin="round"
     d="M9 12h3.75M9 15h3.75M9 18h3.75m3 .75H18a2.25 2.25 0 0 0 2.25-2.25V6.108c0-1.135-.845-2.098-1.976-2.192a48.424 48.424 0 0 0-1.123-.08m-5.801 0c-.065.21-.1.433-.1.664 0 .414.336.75.75.75h4.5a.75.75 0 0 0 .75-.75 2.25 2.25 0 0 0-.1-.664m-5.8 0A2.251 2.251 0 0 1 13.5 2.25H15c1.012 0 1.867.668 2.15 1.586m-5.8 0c-.376.023-.75.05-1.124.08C9.095 4.01 8.25 4.973 8.25 6.108V8.25m0 0H4.875c-.621 0-1.125.504-1.125 1.125v11.25c0 .621.504 1.125 1.125 1.125h9.75c.621 0 1.125-.504 1.125-1.125V9.375c0-.621-.504-1.125-1.125-1.125H8.25ZM6.75 12h.008v.008H6.75V12Zm0 3h.008v.008H6.75V15Zm0 3h.008v.008H6.75V18Z"
     id="path1193"
     style="stroke:#565959;stroke-opacity:1" />
</svg>
